<svg width="50" height="48" viewBox="0 0 50 48" fill="none" xmlns="http://www.w3.org/2000/svg" xmlns:xlink="http://www.w3.org/1999/xlink">
<path d="M15.996,38.027C15.996,38.223 15.771,38.379 15.488,38.379C15.166,38.408 14.941,38.252 14.941,38.027C14.941,37.832 15.166,37.676 15.449,37.676C15.742,37.646 15.996,37.803 15.996,38.027ZM12.959,37.588C12.891,37.783 13.086,38.008 13.379,38.066C13.633,38.164 13.926,38.066 13.984,37.871C14.043,37.676 13.857,37.451 13.564,37.363C13.311,37.295 13.027,37.393 12.959,37.588ZM17.275,37.422C16.992,37.49 16.797,37.676 16.826,37.9C16.855,38.096 17.109,38.223 17.402,38.154C17.686,38.086 17.881,37.9 17.852,37.705C17.822,37.52 17.559,37.393 17.275,37.422ZM23.701,0C10.156,0 -0.205,10.283 -0.205,23.828C-0.205,34.658 6.611,43.926 16.348,47.188C17.598,47.412 18.037,46.641 18.037,46.006C18.037,45.4 18.008,42.061 18.008,40.01C18.008,40.01 11.172,41.475 9.736,37.1C9.736,37.1 8.623,34.258 7.021,33.525C7.021,33.525 4.785,31.992 7.178,32.021C7.178,32.021 9.609,32.217 10.947,34.541C13.086,38.311 16.67,37.227 18.066,36.582C18.291,35.02 18.926,33.936 19.629,33.291C14.17,32.686 8.662,31.895 8.662,22.5C8.662,19.814 9.404,18.467 10.967,16.748C10.713,16.113 9.883,13.496 11.221,10.117C13.262,9.482 17.959,12.754 17.959,12.754C19.912,12.207 22.012,11.924 24.092,11.924C26.172,11.924 28.272,12.207 30.225,12.754C30.225,12.754 34.922,9.473 36.963,10.117C38.301,13.506 37.471,16.113 37.217,16.748C38.779,18.477 39.736,19.824 39.736,22.5C39.736,31.924 33.984,32.676 28.525,33.291C29.424,34.062 30.186,35.527 30.186,37.822C30.186,41.113 30.156,45.186 30.156,45.986C30.156,46.621 30.606,47.393 31.846,47.168C41.611,43.926 48.233,34.658 48.233,23.828C48.233,10.283 37.246,0 23.701,0ZM9.287,33.682C9.16,33.779 9.189,34.004 9.355,34.189C9.512,34.346 9.736,34.414 9.863,34.287C9.99,34.189 9.961,33.965 9.795,33.779C9.639,33.623 9.414,33.555 9.287,33.682ZM8.232,32.891C8.164,33.018 8.262,33.174 8.457,33.271C8.613,33.369 8.809,33.34 8.877,33.203C8.945,33.076 8.848,32.92 8.652,32.822C8.457,32.764 8.301,32.793 8.232,32.891ZM11.396,36.367C11.24,36.494 11.299,36.787 11.523,36.973C11.748,37.197 12.031,37.227 12.158,37.07C12.285,36.943 12.227,36.65 12.031,36.465C11.816,36.24 11.523,36.211 11.396,36.367ZM10.283,34.932C10.127,35.029 10.127,35.283 10.283,35.508C10.439,35.732 10.703,35.83 10.83,35.732C10.986,35.605 10.986,35.352 10.83,35.127C10.693,34.902 10.439,34.805 10.283,34.932Z" fill="#000000"/>
</svg>
