<svg width="44" height="44" viewBox="0 0 44 44" fill="none" xmlns="http://www.w3.org/2000/svg" xmlns:xlink="http://www.w3.org/1999/xlink">
<path d="M21.892,10.392C15.681,10.392 10.671,15.402 10.671,21.613C10.671,27.824 15.681,32.833 21.892,32.833C28.103,32.833 33.113,27.824 33.113,21.613C33.113,15.402 28.103,10.392 21.892,10.392ZM21.892,28.908C17.878,28.908 14.597,25.636 14.597,21.613C14.597,17.589 17.869,14.318 21.892,14.318C25.916,14.318 29.187,17.589 29.187,21.613C29.187,25.636 25.906,28.908 21.892,28.908ZM36.189,9.933C36.189,11.388 35.017,12.55 33.572,12.55C32.117,12.55 30.955,11.378 30.955,9.933C30.955,8.488 32.126,7.316 33.572,7.316C35.017,7.316 36.189,8.488 36.189,9.933ZM43.621,12.589C43.455,9.083 42.654,5.978 40.085,3.419C37.527,0.861 34.421,0.06 30.916,-0.116C27.302,-0.321 16.472,-0.321 12.859,-0.116C9.363,0.05 6.257,0.851 3.689,3.41C1.121,5.968 0.33,9.074 0.154,12.58C-0.051,16.193 -0.051,27.023 0.154,30.636C0.32,34.142 1.121,37.247 3.689,39.806C6.257,42.365 9.353,43.165 12.859,43.341C16.472,43.546 27.302,43.546 30.916,43.341C34.421,43.175 37.527,42.374 40.085,39.806C42.644,37.247 43.445,34.142 43.621,30.636C43.826,27.023 43.826,16.203 43.621,12.589ZM38.953,34.513C38.191,36.427 36.716,37.902 34.792,38.673C31.912,39.816 25.076,39.552 21.892,39.552C18.709,39.552 11.863,39.806 8.992,38.673C7.078,37.912 5.603,36.437 4.832,34.513C3.689,31.632 3.953,24.796 3.953,21.613C3.953,18.429 3.699,11.583 4.832,8.712C5.593,6.798 7.068,5.324 8.992,4.552C11.873,3.41 18.709,3.673 21.892,3.673C25.076,3.673 31.921,3.419 34.792,4.552C36.707,5.314 38.181,6.789 38.953,8.712C40.095,11.593 39.832,18.429 39.832,21.613C39.832,24.796 40.095,31.642 38.953,34.513Z" fill="#000000"/>
</svg>
